<svg width="147" height="145" viewBox="0 0 147 145" fill="none" xmlns="http://www.w3.org/2000/svg">
<path d="M73.2928 18.8901C73.0421 19.8078 74.1072 21.48 88.1493 32.8501C97.9007 40.7459 100.63 43.0563 106.303 47.2073C120.569 57.6452 123.903 58.1007 126.354 57.9737C131.158 57.7247 136.369 55.0415 138.802 50.3895C140.59 46.9696 141.007 42.2351 138.853 38.3773C137.606 36.1453 135.867 34.8665 135.267 34.4254C125.523 27.2593 75.1457 12.1075 73.2928 18.8901Z" fill="#A67C52"/>
<path d="M76.9779 108.209H88.1652C90.0113 108.209 91.5078 109.707 91.5078 111.553V124.381C91.5078 126.228 90.0113 127.725 88.1652 127.725H76.9779C75.1318 127.725 73.6353 126.228 73.6353 124.381V111.553C73.6353 109.707 75.1318 108.209 76.9779 108.209Z" fill="#E28902"/>
<path d="M58.1532 108.205H69.3405C71.1865 108.205 72.6831 109.702 72.6831 111.549V126.048C72.6831 127.895 71.1865 129.392 69.3405 129.392H58.1532C56.3071 129.392 54.8106 127.895 54.8106 126.048V111.549C54.8106 109.702 56.3071 108.205 58.1532 108.205Z" fill="#E28902"/>
<path d="M54.9425 101.925C47.9856 99.1646 43.0404 102.111 38.2579 98.2347C35.8498 96.2828 32.9076 92.3772 32.9995 94.1672C33.0357 94.8735 31.911 99.2902 34.4757 100.268C35.9087 100.815 36.004 103.209 37.6903 103.398C39.9531 103.652 40.3305 105.246 40.7209 105.463C41.1226 105.687 42.6962 107.765 44.1301 106.95C45.6511 106.086 47.081 107.933 48.5432 107.894C49.7847 107.861 51.1526 103.015 56.0008 104.926C56.6783 105.193 57.2402 104.172 57.1998 103.587C57.1787 103.281 56.9006 102.702 54.9425 101.925Z" fill="#A67C52"/>
<g filter="url(#filter0_d_39_101)">
<path d="M55.6461 66.126H89.9083C91.7544 66.126 93.251 67.6232 93.251 69.47V107.926C93.251 109.773 91.7544 111.27 89.9083 111.27H55.6461C53.8 111.27 52.3035 109.773 52.3035 107.926V69.47C52.3035 67.6232 53.8 66.126 55.6461 66.126Z" fill="#E28902"/>
</g>
<path d="M54.8105 80.4774C54.8105 79.7848 55.3717 79.2234 56.0639 79.2234C56.7562 79.2234 57.3174 79.7848 57.3174 80.4774V107.23C57.3174 107.922 56.7562 108.484 56.0639 108.484C55.3717 108.484 54.8105 107.922 54.8105 107.23V80.4774Z" fill="white"/>
<g filter="url(#filter1_d_39_101)">
<path d="M47.8465 40.3489C47.8465 26.6314 59.0653 15.408 72.7771 15.408C86.4889 15.408 97.7077 26.6314 97.7077 40.3489V45.5043H110.661C121.615 45.5043 130.577 54.4705 130.577 65.4292C130.577 76.3879 121.615 85.3541 110.661 85.3541H67.7631C56.809 85.3541 47.8465 76.3879 47.8465 65.4292C47.8465 64.6347 47.899 63.8523 47.9905 63.0815C47.8962 62.2043 47.8465 61.3143 47.8465 60.4132V40.3489Z" fill="#A67C52"/>
</g>
<path d="M71.3844 49.6844C67.1538 49.6844 63.7242 46.2534 63.7242 42.021C63.7242 37.7886 67.1538 34.3575 71.3844 34.3575C75.6151 34.3575 79.0447 37.7886 79.0447 42.021C79.0447 46.2534 75.6151 49.6844 71.3844 49.6844Z" fill="white"/>
<path d="M87.819 49.1271C83.5884 49.1271 80.1588 45.6961 80.1588 41.4637C80.1588 37.2313 83.5884 33.8003 87.819 33.8003C92.0496 33.8003 95.4792 37.2313 95.4792 41.4637C95.4792 45.6961 92.0496 49.1271 87.819 49.1271Z" fill="white"/>
<path d="M90.6798 45.783C88.2184 45.783 86.223 43.7868 86.223 41.3243C86.223 38.8618 88.2184 36.8656 90.6798 36.8656C93.1413 36.8656 95.1367 38.8618 95.1367 41.3243C95.1367 43.7868 93.1413 45.783 90.6798 45.783Z" fill="black"/>
<path d="M74.2453 46.619C71.7838 46.619 69.7884 44.6227 69.7884 42.1603C69.7884 39.6978 71.7838 37.7015 74.2453 37.7015C76.7067 37.7015 78.7021 39.6978 78.7021 42.1603C78.7021 44.6227 76.7067 46.619 74.2453 46.619Z" fill="black"/>
<path d="M76.1987 78.096C75.3373 78.4748 74.3537 78.6776 73.4214 78.7615C71.5496 78.93 69.5942 78.4702 68.1913 77.159C67.1084 76.147 66.4173 74.8115 65.9979 73.4044C65.8688 72.9715 66.0457 72.495 66.4893 72.3312C66.8914 72.1827 67.435 72.3906 67.5647 72.8258C67.6623 73.1531 67.7715 73.4765 67.9001 73.7932C67.9542 73.9264 68.0115 74.0585 68.0721 74.189C68.1072 74.2645 68.145 74.3386 68.1808 74.4138C68.2691 74.5992 68.1349 74.3414 68.2261 74.501C68.3642 74.7427 68.5097 74.9787 68.6739 75.2038C68.7438 75.2997 68.8164 75.3936 68.8917 75.4853C68.9333 75.5358 69.2012 75.8235 69.0613 75.6835C69.2291 75.8514 69.4017 76.0123 69.5883 76.1593C69.6694 76.2231 69.7523 76.2846 69.837 76.3435C69.8869 76.3783 69.938 76.4111 69.9885 76.445C69.8133 76.3275 69.9677 76.4324 70.0113 76.4565C70.1987 76.5605 70.3871 76.6591 70.5845 76.7429C70.6716 76.78 70.7599 76.8147 70.8489 76.8471C70.9017 76.8663 70.9553 76.8833 71.0082 76.9022C70.7938 76.8257 70.9739 76.8919 71.0171 76.9035C71.4009 77.0065 71.788 77.0801 72.1841 77.1136C72.2362 77.118 72.2885 77.1201 72.3405 77.1249C72.5259 77.1423 72.1457 77.1239 72.3308 77.1247C72.4158 77.125 72.5008 77.1286 72.5859 77.1283C72.7678 77.1278 72.9495 77.1207 73.1308 77.1075C73.4649 77.0833 73.7974 77.0387 74.1264 76.9765C74.2012 76.9624 74.2755 76.9462 74.3501 76.9314C74.5145 76.8987 74.1294 76.987 74.3805 76.9235C74.5072 76.8914 74.6337 76.8593 74.7594 76.8234C75.0482 76.7406 75.3393 76.6492 75.6147 76.5281C76.0279 76.3463 76.5391 76.6174 76.6901 77.0227C76.8561 77.4684 76.6131 77.9137 76.1987 78.096Z" fill="black"/>
<path d="M57.9166 21.3016C57.0987 20.812 55.1973 21.3815 40.4316 31.7838C30.1778 39.0076 27.2111 41.0019 21.6727 45.3248C7.74607 56.1951 6.40603 59.2731 5.86651 61.6613C4.80901 66.3424 5.99081 72.0743 9.82305 75.6715C12.6404 78.316 17.0966 80.0005 21.4014 78.9776C23.8921 78.3858 25.5958 77.0627 26.1836 76.6061C35.7313 69.1912 63.9616 24.92 57.9166 21.3016Z" fill="#A67C52"/>
<path d="M118.182 59.1591C110.566 59.1591 104.393 52.9833 104.393 45.365C104.393 37.7467 110.566 31.5708 118.182 31.5708C125.797 31.5708 131.97 37.7467 131.97 45.365C131.97 52.9833 125.797 59.1591 118.182 59.1591Z" fill="black"/>
<path d="M56.2033 113.918C56.2033 113.225 56.7645 112.664 57.4568 112.664C58.149 112.664 58.7102 113.225 58.7102 113.918V123.671C58.7102 124.364 58.149 124.925 57.4568 124.925C56.7645 124.925 56.2033 124.364 56.2033 123.671V113.918Z" fill="white"/>
<path d="M87.4013 113.918C87.4013 113.225 87.9625 112.664 88.6548 112.664C89.347 112.664 89.9082 113.225 89.9082 113.918V123.671C89.9082 124.364 89.347 124.925 88.6548 124.925C87.9625 124.925 87.4013 124.364 87.4013 123.671V113.918Z" fill="white"/>
<path d="M64.3374 115.45C57.6958 115.45 52.3036 120.845 52.3036 127.489V127.656C52.3036 129.502 53.8014 131 55.6463 131H73.1952C75.0401 131 76.5378 129.502 76.5378 127.656C76.5378 120.92 71.071 115.45 64.3374 115.45Z" fill="#A67C52"/>
<path d="M83.8359 115.45C77.1943 115.45 71.8021 120.845 71.8021 127.489V127.656C71.8021 129.502 73.2999 131 75.1448 131H92.6937C94.5386 131 96.0364 129.502 96.0364 127.656C96.0364 120.92 90.5695 115.45 83.8359 115.45Z" fill="#A67C52"/>
<g filter="url(#filter2_d_39_101)">
<path d="M98.547 102.866C94.3164 102.866 90.8868 99.4346 90.8868 95.2022C90.8868 90.9698 94.3164 87.5388 98.547 87.5388C102.778 87.5388 106.207 90.9698 106.207 95.2022C106.207 99.4346 102.778 102.866 98.547 102.866Z" fill="#A67C52"/>
</g>
<g filter="url(#filter3_d_39_101)">
<path d="M51.9501 97.9269C47.7195 97.9269 44.2899 94.4959 44.2899 90.2635C44.2899 86.0311 47.7195 82.6001 51.9501 82.6001C56.1807 82.6001 59.6104 86.0311 59.6104 90.2635C59.6104 94.4959 56.1807 97.9269 51.9501 97.9269Z" fill="#A67C52"/>
</g>
<defs>
<filter id="filter0_d_39_101" x="50.8653" y="64.6878" width="55.329" height="59.5261" filterUnits="userSpaceOnUse" color-interpolation-filters="sRGB">
<feFlood flood-opacity="0" result="BackgroundImageFix"/>
<feColorMatrix in="SourceAlpha" type="matrix" values="0 0 0 0 0 0 0 0 0 0 0 0 0 0 0 0 0 0 127 0" result="hardAlpha"/>
<feOffset dx="5.75261" dy="5.75261"/>
<feGaussianBlur stdDeviation="3.59538"/>
<feColorMatrix type="matrix" values="0 0 0 0 0 0 0 0 0 0 0 0 0 0 0 0 0 0 0.2 0"/>
<feBlend mode="normal" in2="BackgroundImageFix" result="effect1_dropShadow_39_101"/>
<feBlend mode="normal" in="SourceGraphic" in2="effect1_dropShadow_39_101" result="shape"/>
</filter>
<filter id="filter1_d_39_101" x="46.4083" y="13.9698" width="97.1122" height="84.3277" filterUnits="userSpaceOnUse" color-interpolation-filters="sRGB">
<feFlood flood-opacity="0" result="BackgroundImageFix"/>
<feColorMatrix in="SourceAlpha" type="matrix" values="0 0 0 0 0 0 0 0 0 0 0 0 0 0 0 0 0 0 127 0" result="hardAlpha"/>
<feOffset dx="5.75261" dy="5.75261"/>
<feGaussianBlur stdDeviation="3.59538"/>
<feColorMatrix type="matrix" values="0 0 0 0 0 0 0 0 0 0 0 0 0 0 0 0 0 0 0.2 0"/>
<feBlend mode="normal" in2="BackgroundImageFix" result="effect1_dropShadow_39_101"/>
<feBlend mode="normal" in="SourceGraphic" in2="effect1_dropShadow_39_101" result="shape"/>
</filter>
<filter id="filter2_d_39_101" x="89.4486" y="86.1007" width="29.7021" height="29.7083" filterUnits="userSpaceOnUse" color-interpolation-filters="sRGB">
<feFlood flood-opacity="0" result="BackgroundImageFix"/>
<feColorMatrix in="SourceAlpha" type="matrix" values="0 0 0 0 0 0 0 0 0 0 0 0 0 0 0 0 0 0 127 0" result="hardAlpha"/>
<feOffset dx="5.75261" dy="5.75261"/>
<feGaussianBlur stdDeviation="3.59538"/>
<feColorMatrix type="matrix" values="0 0 0 0 0 0 0 0 0 0 0 0 0 0 0 0 0 0 0.2 0"/>
<feBlend mode="normal" in2="BackgroundImageFix" result="effect1_dropShadow_39_101"/>
<feBlend mode="normal" in="SourceGraphic" in2="effect1_dropShadow_39_101" result="shape"/>
</filter>
<filter id="filter3_d_39_101" x="42.8516" y="81.1619" width="29.7021" height="29.7083" filterUnits="userSpaceOnUse" color-interpolation-filters="sRGB">
<feFlood flood-opacity="0" result="BackgroundImageFix"/>
<feColorMatrix in="SourceAlpha" type="matrix" values="0 0 0 0 0 0 0 0 0 0 0 0 0 0 0 0 0 0 127 0" result="hardAlpha"/>
<feOffset dx="5.75261" dy="5.75261"/>
<feGaussianBlur stdDeviation="3.59538"/>
<feColorMatrix type="matrix" values="0 0 0 0 0 0 0 0 0 0 0 0 0 0 0 0 0 0 0.2 0"/>
<feBlend mode="normal" in2="BackgroundImageFix" result="effect1_dropShadow_39_101"/>
<feBlend mode="normal" in="SourceGraphic" in2="effect1_dropShadow_39_101" result="shape"/>
</filter>
</defs>
</svg>
