<svg width="147" height="145" viewBox="0 0 147 145" fill="none" xmlns="http://www.w3.org/2000/svg">
<path d="M75.4342 16.6582C74.8355 17.3975 75.1377 19.3569 83.4182 35.416C89.1685 46.568 90.7372 49.7811 94.2609 55.8641C103.122 71.1599 105.99 72.9182 108.285 73.7881C112.784 75.4932 118.634 75.1334 122.732 71.8533C125.745 69.4419 128.032 65.2755 127.612 60.8769C127.369 58.332 126.292 56.4617 125.92 55.8165C119.883 45.3353 79.8595 11.1943 75.4342 16.6582Z" fill="#A67C52"/>
<path d="M76.9779 108.209H88.1652C90.0113 108.209 91.5078 109.706 91.5078 111.553V124.381C91.5078 126.228 90.0113 127.725 88.1652 127.725H76.9779C75.1318 127.725 73.6353 126.228 73.6353 124.381V111.553C73.6353 109.706 75.1318 108.209 76.9779 108.209Z" fill="#E28902"/>
<path d="M58.153 108.205H69.3402C71.1863 108.205 72.6829 109.702 72.6829 111.549V126.048C72.6829 127.895 71.1863 129.392 69.3402 129.392H58.153C56.3069 129.392 54.8103 127.895 54.8103 126.048V111.549C54.8103 109.702 56.3069 108.205 58.153 108.205Z" fill="#E28902"/>
<path d="M52.9078 100.817C46.3921 104.5 45.5818 110.199 39.5622 111.489C36.5312 112.139 31.6441 111.977 33.0952 113.03C33.6677 113.445 36.4 117.092 38.7711 115.71C40.0961 114.937 42.02 116.366 43.2256 115.172C44.8434 113.57 46.3211 114.276 46.7353 114.109C47.1615 113.937 49.7667 114.016 50.0326 112.388C50.3146 110.662 52.6502 110.708 53.5375 109.545C54.291 108.558 51.3774 104.452 55.9082 101.877C56.5413 101.517 56.0988 100.439 55.6182 100.103C55.3671 99.9276 54.7418 99.7806 52.9078 100.817Z" fill="#A67C52"/>
<g filter="url(#filter0_d_39_78)">
<path d="M55.6459 66.126H89.9081C91.7542 66.126 93.2507 67.6232 93.2507 69.47V107.926C93.2507 109.773 91.7542 111.27 89.9081 111.27H55.6459C53.7998 111.27 52.3032 109.773 52.3032 107.926V69.47C52.3032 67.6232 53.7998 66.126 55.6459 66.126Z" fill="#E28902"/>
</g>
<path d="M54.8105 80.4774C54.8105 79.7848 55.3717 79.2234 56.0639 79.2234C56.7562 79.2234 57.3174 79.7848 57.3174 80.4774V107.23C57.3174 107.922 56.7562 108.484 56.0639 108.484C55.3717 108.484 54.8105 107.922 54.8105 107.23V80.4774Z" fill="white"/>
<g filter="url(#filter1_d_39_78)">
<path d="M47.8465 40.3488C47.8465 26.6314 59.0653 15.4079 72.7771 15.4079C86.4889 15.4079 97.7077 26.6314 97.7077 40.3488V45.5043H110.661C121.615 45.5043 130.577 54.4704 130.577 65.4291C130.577 76.3878 121.615 85.354 110.661 85.354H67.7631C56.809 85.354 47.8465 76.3879 47.8465 65.4292C47.8465 64.6347 47.899 63.8523 47.9905 63.0814C47.8962 62.2043 47.8465 61.3143 47.8465 60.4131V40.3488Z" fill="#A67C52"/>
</g>
<path d="M71.3844 49.6844C67.1538 49.6844 63.7242 46.2534 63.7242 42.021C63.7242 37.7886 67.1538 34.3575 71.3844 34.3575C75.6151 34.3575 79.0447 37.7886 79.0447 42.021C79.0447 46.2534 75.6151 49.6844 71.3844 49.6844Z" fill="white"/>
<path d="M87.819 49.1271C83.5884 49.1271 80.1588 45.696 80.1588 41.4637C80.1588 37.2313 83.5884 33.8002 87.819 33.8002C92.0496 33.8002 95.4792 37.2313 95.4792 41.4637C95.4792 45.696 92.0496 49.1271 87.819 49.1271Z" fill="white"/>
<path d="M87.6796 45.7831C85.2181 45.7831 83.2227 43.7868 83.2227 41.3243C83.2227 38.8619 85.2181 36.8656 87.6796 36.8656C90.1411 36.8656 92.1365 38.8619 92.1365 41.3243C92.1365 43.7868 90.1411 45.7831 87.6796 45.7831Z" fill="black"/>
<path d="M71.245 46.619C68.7836 46.619 66.7882 44.6228 66.7882 42.1603C66.7882 39.6978 68.7836 37.7016 71.245 37.7016C73.7065 37.7016 75.7019 39.6978 75.7019 42.1603C75.7019 44.6228 73.7065 46.619 71.245 46.619Z" fill="black"/>
<path d="M65.7144 74.6494C66.3383 73.945 67.1469 73.3492 67.9586 72.883C69.5882 71.9469 71.5567 71.5465 73.3794 72.1505C74.7863 72.6167 75.9728 73.5406 76.9424 74.6432C77.2407 74.9824 77.2794 75.4891 76.945 75.8235C76.642 76.1266 76.0612 76.1652 75.7613 75.8242C75.5358 75.5677 75.3013 75.3196 75.052 75.0858C74.9471 74.9874 74.8398 74.8914 74.7301 74.7983C74.6667 74.7444 74.6013 74.6929 74.5374 74.6396C74.3796 74.5081 74.6093 74.6861 74.4597 74.5793C74.2332 74.4175 74.0023 74.2641 73.759 74.1283C73.6554 74.0705 73.5502 74.0155 73.4434 73.9638C73.3845 73.9353 73.0208 73.7861 73.2065 73.8547C72.9838 73.7724 72.7597 73.6985 72.5287 73.643C72.4284 73.6189 72.3274 73.5978 72.2258 73.5797C72.1659 73.569 72.1058 73.5606 72.0457 73.551C72.254 73.5844 72.0699 73.5537 72.0202 73.55C71.8065 73.534 71.5941 73.5232 71.3798 73.5296C71.2851 73.5325 71.1905 73.5379 71.0961 73.5457C71.04 73.5503 70.9842 73.5573 70.9282 73.5623C71.155 73.542 70.9637 73.5572 70.9197 73.5648C70.528 73.6318 70.1456 73.7269 69.7718 73.8622C69.7227 73.88 69.6742 73.9 69.6249 73.9173C69.4493 73.9791 69.8023 73.8368 69.6339 73.9135C69.5565 73.9487 69.4778 73.9811 69.4006 74.0169C69.2357 74.0934 69.0736 74.1759 68.9144 74.2637C68.6211 74.4255 68.3378 74.6051 68.065 74.7993C68.0029 74.8434 67.9422 74.8891 67.8806 74.9338C67.7451 75.0323 68.0578 74.791 67.8564 74.9537C67.7547 75.0358 67.6532 75.1179 67.5541 75.2032C67.3264 75.3991 67.1003 75.604 66.9008 75.8292C66.6015 76.1671 66.0238 76.1348 65.7171 75.8298C65.3798 75.4945 65.4143 74.9884 65.7144 74.6494Z" fill="black"/>
<path d="M55.6732 22.2963C54.7423 22.0916 53.1198 23.2349 42.4182 37.7851C34.9865 47.8893 32.8059 50.7219 28.9255 56.5789C19.168 71.3065 18.8739 74.6507 19.1201 77.0867C19.6027 81.8614 22.5423 86.9221 27.3179 89.1173C30.8288 90.7311 35.5892 90.9145 39.347 88.5785C41.5211 87.2269 42.7169 85.4316 43.1295 84.8121C49.8308 74.7507 62.554 23.8095 55.6732 22.2963Z" fill="#A67C52"/>
<path d="M118.182 59.1591C110.566 59.1591 104.393 52.9833 104.393 45.365C104.393 37.7467 110.566 31.5708 118.182 31.5708C125.797 31.5708 131.97 37.7467 131.97 45.365C131.97 52.9833 125.797 59.1591 118.182 59.1591Z" fill="black"/>
<path d="M56.2033 113.918C56.2033 113.225 56.7645 112.664 57.4568 112.664C58.149 112.664 58.7102 113.225 58.7102 113.918V123.671C58.7102 124.364 58.149 124.925 57.4568 124.925C56.7645 124.925 56.2033 124.364 56.2033 123.671V113.918Z" fill="white"/>
<path d="M87.4013 113.918C87.4013 113.225 87.9625 112.664 88.6548 112.664C89.347 112.664 89.9082 113.225 89.9082 113.918V123.671C89.9082 124.364 89.347 124.925 88.6548 124.925C87.9625 124.925 87.4013 124.364 87.4013 123.671V113.918Z" fill="white"/>
<path d="M64.3371 115.45C57.6955 115.45 52.3034 120.845 52.3034 127.489V127.656C52.3034 129.502 53.8011 131 55.646 131H73.1949C75.0398 131 76.5376 129.502 76.5376 127.656C76.5376 120.92 71.0707 115.45 64.3371 115.45Z" fill="#A67C52"/>
<path d="M83.8359 115.45C77.1943 115.45 71.8021 120.845 71.8021 127.489V127.656C71.8021 129.502 73.2999 131 75.1448 131H92.6937C94.5386 131 96.0364 129.502 96.0364 127.656C96.0364 120.92 90.5695 115.45 83.8359 115.45Z" fill="#A67C52"/>
<g filter="url(#filter2_d_39_78)">
<path d="M94.547 106.866C90.3164 106.866 86.8868 103.435 86.8868 99.2023C86.8868 94.9699 90.3164 91.5388 94.547 91.5388C98.7777 91.5388 102.207 94.9699 102.207 99.2023C102.207 103.435 98.7777 106.866 94.547 106.866Z" fill="#A67C52"/>
</g>
<g filter="url(#filter3_d_39_78)">
<path d="M51.9499 102.927C47.7192 102.927 44.2896 99.4959 44.2896 95.2635C44.2896 91.0311 47.7192 87.6001 51.9499 87.6001C56.1805 87.6001 59.6101 91.0311 59.6101 95.2635C59.6101 99.4959 56.1805 102.927 51.9499 102.927Z" fill="#A67C52"/>
</g>
<defs>
<filter id="filter0_d_39_78" x="50.8651" y="64.6878" width="55.329" height="59.526" filterUnits="userSpaceOnUse" color-interpolation-filters="sRGB">
<feFlood flood-opacity="0" result="BackgroundImageFix"/>
<feColorMatrix in="SourceAlpha" type="matrix" values="0 0 0 0 0 0 0 0 0 0 0 0 0 0 0 0 0 0 127 0" result="hardAlpha"/>
<feOffset dx="5.75261" dy="5.75261"/>
<feGaussianBlur stdDeviation="3.59538"/>
<feColorMatrix type="matrix" values="0 0 0 0 0 0 0 0 0 0 0 0 0 0 0 0 0 0 0.2 0"/>
<feBlend mode="normal" in2="BackgroundImageFix" result="effect1_dropShadow_39_78"/>
<feBlend mode="normal" in="SourceGraphic" in2="effect1_dropShadow_39_78" result="shape"/>
</filter>
<filter id="filter1_d_39_78" x="46.4083" y="13.9698" width="97.1122" height="84.3276" filterUnits="userSpaceOnUse" color-interpolation-filters="sRGB">
<feFlood flood-opacity="0" result="BackgroundImageFix"/>
<feColorMatrix in="SourceAlpha" type="matrix" values="0 0 0 0 0 0 0 0 0 0 0 0 0 0 0 0 0 0 127 0" result="hardAlpha"/>
<feOffset dx="5.75261" dy="5.75261"/>
<feGaussianBlur stdDeviation="3.59538"/>
<feColorMatrix type="matrix" values="0 0 0 0 0 0 0 0 0 0 0 0 0 0 0 0 0 0 0.2 0"/>
<feBlend mode="normal" in2="BackgroundImageFix" result="effect1_dropShadow_39_78"/>
<feBlend mode="normal" in="SourceGraphic" in2="effect1_dropShadow_39_78" result="shape"/>
</filter>
<filter id="filter2_d_39_78" x="85.4486" y="90.1007" width="29.7021" height="29.7084" filterUnits="userSpaceOnUse" color-interpolation-filters="sRGB">
<feFlood flood-opacity="0" result="BackgroundImageFix"/>
<feColorMatrix in="SourceAlpha" type="matrix" values="0 0 0 0 0 0 0 0 0 0 0 0 0 0 0 0 0 0 127 0" result="hardAlpha"/>
<feOffset dx="5.75261" dy="5.75261"/>
<feGaussianBlur stdDeviation="3.59538"/>
<feColorMatrix type="matrix" values="0 0 0 0 0 0 0 0 0 0 0 0 0 0 0 0 0 0 0.2 0"/>
<feBlend mode="normal" in2="BackgroundImageFix" result="effect1_dropShadow_39_78"/>
<feBlend mode="normal" in="SourceGraphic" in2="effect1_dropShadow_39_78" result="shape"/>
</filter>
<filter id="filter3_d_39_78" x="42.8514" y="86.1619" width="29.7021" height="29.7084" filterUnits="userSpaceOnUse" color-interpolation-filters="sRGB">
<feFlood flood-opacity="0" result="BackgroundImageFix"/>
<feColorMatrix in="SourceAlpha" type="matrix" values="0 0 0 0 0 0 0 0 0 0 0 0 0 0 0 0 0 0 127 0" result="hardAlpha"/>
<feOffset dx="5.75261" dy="5.75261"/>
<feGaussianBlur stdDeviation="3.59538"/>
<feColorMatrix type="matrix" values="0 0 0 0 0 0 0 0 0 0 0 0 0 0 0 0 0 0 0.2 0"/>
<feBlend mode="normal" in2="BackgroundImageFix" result="effect1_dropShadow_39_78"/>
<feBlend mode="normal" in="SourceGraphic" in2="effect1_dropShadow_39_78" result="shape"/>
</filter>
</defs>
</svg>
