<svg width="147" height="146" viewBox="0 0 147 146" fill="none" xmlns="http://www.w3.org/2000/svg">
<path d="M69.4451 26.7631C69.8126 27.6406 71.6815 28.3023 89.747 28.6144C102.292 28.8312 105.865 28.9712 112.892 28.7483C130.56 28.188 133.467 26.494 135.32 24.8847C138.952 21.7304 141.406 16.4074 140.457 11.2442C139.761 7.44853 137.174 3.46108 133.101 1.74798C130.745 0.756826 128.587 0.819979 127.843 0.841792C115.752 1.19577 66.7284 20.278 69.4451 26.7631Z" fill="#A67C52"/>
<path d="M78.265 112.394L89.0711 109.499C90.8542 109.021 92.6873 110.08 93.1653 111.864L96.4853 124.254C96.9633 126.038 95.9052 127.871 94.122 128.349L83.316 131.245C81.5328 131.722 79.6997 130.664 79.2217 128.88L75.9017 116.489C75.4237 114.705 76.4818 112.872 78.265 112.394Z" fill="#E28902"/>
<path d="M57.3168 108.971L68.1228 111.867C69.906 112.345 70.9641 114.178 70.4861 115.962L66.7334 129.967C66.2554 131.751 64.4223 132.81 62.6391 132.332L51.8331 129.437C50.0499 128.959 48.9918 127.125 49.4698 125.342L53.2225 111.336C53.7005 109.552 55.5336 108.494 57.3168 108.971Z" fill="#E28902"/>
<path d="M54.9423 102.925C47.9854 100.165 43.0401 103.111 38.2576 99.2346C35.8496 97.2827 32.9074 93.3771 32.9993 95.1671C33.0355 95.8734 31.9107 100.29 34.4754 101.268C35.9085 101.815 36.0037 104.209 37.69 104.398C39.9528 104.652 40.3303 106.246 40.7206 106.463C41.1223 106.687 42.696 108.764 44.1298 107.95C45.6509 107.086 47.0808 108.933 48.5429 108.894C49.7845 108.861 51.1524 104.015 56.0005 105.926C56.678 106.193 57.2399 105.172 57.1996 104.587C57.1784 104.281 56.9003 103.702 54.9423 102.925Z" fill="#A67C52"/>
<g filter="url(#filter0_d_39_124)">
<path d="M55.6461 67.126H89.9083C91.7544 67.126 93.251 68.6232 93.251 70.47V108.926C93.251 110.773 91.7544 112.27 89.9083 112.27H55.6461C53.8 112.27 52.3035 110.773 52.3035 108.926V70.47C52.3035 68.6232 53.8 67.126 55.6461 67.126Z" fill="#E28902"/>
</g>
<path d="M54.8105 81.4774C54.8105 80.7848 55.3717 80.2234 56.0639 80.2234C56.7562 80.2234 57.3174 80.7848 57.3174 81.4774V108.23C57.3174 108.922 56.7562 109.484 56.0639 109.484C55.3717 109.484 54.8105 108.922 54.8105 108.23V81.4774Z" fill="white"/>
<g filter="url(#filter1_d_39_124)">
<path d="M47.8465 41.3489C47.8465 27.6314 59.0653 16.408 72.7771 16.408C86.4889 16.408 97.7077 27.6314 97.7077 41.3489V46.5043H110.661C121.615 46.5043 130.577 55.4705 130.577 66.4292C130.577 77.3879 121.615 86.3541 110.661 86.3541H67.7631C56.809 86.3541 47.8465 77.3879 47.8465 66.4292C47.8465 65.6347 47.899 64.8523 47.9905 64.0815C47.8962 63.2043 47.8465 62.3143 47.8465 61.4132V41.3489Z" fill="#A67C52"/>
</g>
<path d="M71.3847 50.6844C67.154 50.6844 63.7244 47.2534 63.7244 43.021C63.7244 38.7886 67.154 35.3575 71.3847 35.3575C75.6153 35.3575 79.0449 38.7886 79.0449 43.021C79.0449 47.2534 75.6153 50.6844 71.3847 50.6844Z" fill="white"/>
<path d="M87.8192 50.1271C83.5886 50.1271 80.159 46.6961 80.159 42.4637C80.159 38.2313 83.5886 34.8003 87.8192 34.8003C92.0499 34.8003 95.4795 38.2313 95.4795 42.4637C95.4795 46.6961 92.0499 50.1271 87.8192 50.1271Z" fill="white"/>
<path d="M87.6798 46.783C85.2184 46.783 83.223 44.7868 83.223 42.3243C83.223 39.8618 85.2184 37.8656 87.6798 37.8656C90.1413 37.8656 92.1367 39.8618 92.1367 42.3243C92.1367 44.7868 90.1413 46.783 87.6798 46.783Z" fill="black"/>
<path d="M71.2453 47.619C68.7838 47.619 66.7884 45.6227 66.7884 43.1603C66.7884 40.6978 68.7838 38.7015 71.2453 38.7015C73.7067 38.7015 75.7021 40.6978 75.7021 43.1603C75.7021 45.6227 73.7067 47.619 71.2453 47.619Z" fill="black"/>
<path d="M74.4338 80.1102C73.5095 80.287 72.5055 80.2649 71.578 80.1383C69.7159 79.8843 67.9126 78.9991 66.8382 77.4076C66.0089 76.1792 65.6337 74.723 65.5393 73.2578C65.5102 72.807 65.789 72.3821 66.258 72.3215C66.6832 72.2666 67.1666 72.5908 67.1958 73.044C67.2177 73.3848 67.2519 73.7245 67.3065 74.0618C67.3295 74.2038 67.3558 74.3453 67.3857 74.4861C67.4031 74.5675 67.4233 74.6482 67.4414 74.7295C67.4861 74.9299 67.4129 74.6487 67.4661 74.8246C67.5467 75.0911 67.6358 75.3536 67.7455 75.6097C67.7922 75.7188 67.842 75.8265 67.895 75.9327C67.9242 75.9913 68.1211 76.3315 68.0159 76.1638C68.142 76.3649 68.2743 76.5604 68.4233 76.7453C68.4881 76.8257 68.5552 76.9041 68.6245 76.9805C68.6654 77.0255 68.7079 77.0689 68.7496 77.1132C68.6051 76.9596 68.7321 77.0963 68.7692 77.1296C68.9286 77.2728 69.0902 77.411 69.2639 77.5368C69.3406 77.5924 69.4188 77.6459 69.4983 77.6974C69.5455 77.728 69.5939 77.7565 69.6413 77.7868C69.4494 77.6643 69.6101 77.7691 69.6497 77.79C70.0008 77.9761 70.3616 78.1344 70.7402 78.2555C70.79 78.2714 70.8406 78.2852 70.8902 78.3016C71.067 78.3599 70.7005 78.257 70.8807 78.2991C70.9636 78.3185 71.0456 78.3409 71.1286 78.3597C71.306 78.3999 71.4847 78.4335 71.6644 78.4612C71.9954 78.5123 72.3295 78.5431 72.6641 78.556C72.7401 78.5589 72.8162 78.5598 72.8922 78.562C73.0597 78.5668 72.6647 78.5668 72.9235 78.561C73.0542 78.5581 73.1847 78.5551 73.3152 78.5481C73.6152 78.532 73.9194 78.5079 74.2149 78.4514C74.6583 78.3666 75.096 78.7451 75.1526 79.1739C75.2149 79.6454 74.8785 80.0251 74.4338 80.1102Z" fill="black"/>
<path d="M73.7477 21.5314C73.6178 20.5871 71.9838 19.4601 54.6304 14.4511C42.5795 10.9726 39.1675 9.90619 32.3299 8.29086C15.1365 4.22904 11.897 5.10972 9.69648 6.1832C5.38331 8.2873 1.65156 12.7957 1.24347 18.0359C0.943474 21.8882 2.41777 26.4183 5.90928 29.1363C7.92938 30.7088 10.0275 31.2099 10.7514 31.3828C22.5096 34.1908 74.7075 28.5109 73.7477 21.5314Z" fill="#A67C52"/>
<path d="M118.182 60.1591C110.567 60.1591 104.393 53.9833 104.393 46.365C104.393 38.7467 110.567 32.5708 118.182 32.5708C125.797 32.5708 131.97 38.7467 131.97 46.365C131.97 53.9833 125.797 60.1591 118.182 60.1591Z" fill="black"/>
<path d="M53.9546 113.985C54.1339 113.316 54.8213 112.919 55.4899 113.098C56.1586 113.277 56.5554 113.965 56.3761 114.634L53.8517 124.055C53.6725 124.724 52.9851 125.121 52.3164 124.941C51.6478 124.762 51.251 124.075 51.4303 123.406L53.9546 113.985Z" fill="white"/>
<path d="M89.8108 115.21C89.6316 114.541 90.0283 113.854 90.697 113.675C91.3656 113.495 92.053 113.893 92.2323 114.562L94.7567 123.983C94.9359 124.652 94.5392 125.339 93.8705 125.518C93.2018 125.697 92.5144 125.3 92.3352 124.631L89.8108 115.21Z" fill="white"/>
<path d="M61.4145 117.57C54.9992 115.851 48.3946 119.666 46.6749 126.084L46.6317 126.245C46.154 128.028 47.213 129.863 48.995 130.341L65.9459 134.883C67.7279 135.36 69.5625 134.3 70.0402 132.518C71.7837 126.011 67.9186 119.313 61.4145 117.57Z" fill="#A67C52"/>
<path d="M86.7636 117.614C80.3483 119.333 76.536 125.939 78.2557 132.357L78.2989 132.518C78.7766 134.3 80.6111 135.36 82.3931 134.883L99.3441 130.341C101.126 129.863 102.185 128.028 101.707 126.245C99.9639 119.739 93.2677 115.871 86.7636 117.614Z" fill="#A67C52"/>
<g filter="url(#filter2_d_39_124)">
<path d="M98.5473 101.866C94.3166 101.866 90.887 98.4346 90.887 94.2022C90.887 89.9698 94.3166 86.5388 98.5473 86.5388C102.778 86.5388 106.208 89.9698 106.208 94.2022C106.208 98.4346 102.778 101.866 98.5473 101.866Z" fill="#A67C52"/>
</g>
<g filter="url(#filter3_d_39_124)">
<path d="M47.9501 96.9269C43.7195 96.9269 40.2899 93.4959 40.2899 89.2635C40.2899 85.0311 43.7195 81.6001 47.9501 81.6001C52.1807 81.6001 55.6104 85.0311 55.6104 89.2635C55.6104 93.4959 52.1807 96.9269 47.9501 96.9269Z" fill="#A67C52"/>
</g>
<defs>
<filter id="filter0_d_39_124" x="50.8656" y="65.6878" width="55.3288" height="59.5261" filterUnits="userSpaceOnUse" color-interpolation-filters="sRGB">
<feFlood flood-opacity="0" result="BackgroundImageFix"/>
<feColorMatrix in="SourceAlpha" type="matrix" values="0 0 0 0 0 0 0 0 0 0 0 0 0 0 0 0 0 0 127 0" result="hardAlpha"/>
<feOffset dx="5.75261" dy="5.75261"/>
<feGaussianBlur stdDeviation="3.59538"/>
<feColorMatrix type="matrix" values="0 0 0 0 0 0 0 0 0 0 0 0 0 0 0 0 0 0 0.2 0"/>
<feBlend mode="normal" in2="BackgroundImageFix" result="effect1_dropShadow_39_124"/>
<feBlend mode="normal" in="SourceGraphic" in2="effect1_dropShadow_39_124" result="shape"/>
</filter>
<filter id="filter1_d_39_124" x="46.4085" y="14.9698" width="97.112" height="84.3277" filterUnits="userSpaceOnUse" color-interpolation-filters="sRGB">
<feFlood flood-opacity="0" result="BackgroundImageFix"/>
<feColorMatrix in="SourceAlpha" type="matrix" values="0 0 0 0 0 0 0 0 0 0 0 0 0 0 0 0 0 0 127 0" result="hardAlpha"/>
<feOffset dx="5.75261" dy="5.75261"/>
<feGaussianBlur stdDeviation="3.59538"/>
<feColorMatrix type="matrix" values="0 0 0 0 0 0 0 0 0 0 0 0 0 0 0 0 0 0 0.2 0"/>
<feBlend mode="normal" in2="BackgroundImageFix" result="effect1_dropShadow_39_124"/>
<feBlend mode="normal" in="SourceGraphic" in2="effect1_dropShadow_39_124" result="shape"/>
</filter>
<filter id="filter2_d_39_124" x="89.4491" y="85.1007" width="29.7018" height="29.7083" filterUnits="userSpaceOnUse" color-interpolation-filters="sRGB">
<feFlood flood-opacity="0" result="BackgroundImageFix"/>
<feColorMatrix in="SourceAlpha" type="matrix" values="0 0 0 0 0 0 0 0 0 0 0 0 0 0 0 0 0 0 127 0" result="hardAlpha"/>
<feOffset dx="5.75261" dy="5.75261"/>
<feGaussianBlur stdDeviation="3.59538"/>
<feColorMatrix type="matrix" values="0 0 0 0 0 0 0 0 0 0 0 0 0 0 0 0 0 0 0.2 0"/>
<feBlend mode="normal" in2="BackgroundImageFix" result="effect1_dropShadow_39_124"/>
<feBlend mode="normal" in="SourceGraphic" in2="effect1_dropShadow_39_124" result="shape"/>
</filter>
<filter id="filter3_d_39_124" x="38.8519" y="80.1619" width="29.7018" height="29.7083" filterUnits="userSpaceOnUse" color-interpolation-filters="sRGB">
<feFlood flood-opacity="0" result="BackgroundImageFix"/>
<feColorMatrix in="SourceAlpha" type="matrix" values="0 0 0 0 0 0 0 0 0 0 0 0 0 0 0 0 0 0 127 0" result="hardAlpha"/>
<feOffset dx="5.75261" dy="5.75261"/>
<feGaussianBlur stdDeviation="3.59538"/>
<feColorMatrix type="matrix" values="0 0 0 0 0 0 0 0 0 0 0 0 0 0 0 0 0 0 0.2 0"/>
<feBlend mode="normal" in2="BackgroundImageFix" result="effect1_dropShadow_39_124"/>
<feBlend mode="normal" in="SourceGraphic" in2="effect1_dropShadow_39_124" result="shape"/>
</filter>
</defs>
</svg>
