<svg width="147" height="145" viewBox="0 0 147 145" fill="none" xmlns="http://www.w3.org/2000/svg">
<path d="M68.9623 23.7478C69.0917 24.6903 70.7275 25.8106 88.1047 30.7598C100.172 34.1967 103.589 35.2512 110.436 36.8435C127.653 40.8474 130.898 39.9583 133.103 38.8799C137.424 36.7661 141.165 32.2535 141.577 27.0203C141.88 23.173 140.406 18.6544 136.911 15.9511C134.889 14.387 132.788 13.893 132.063 13.7226C120.288 10.9542 68.0055 16.782 68.9623 23.7478Z" fill="#A67C52"/>
<path d="M76.9779 108.209H88.1652C90.0113 108.209 91.5078 109.707 91.5078 111.553V124.381C91.5078 126.228 90.0113 127.725 88.1652 127.725H76.9779C75.1318 127.725 73.6353 126.228 73.6353 124.381V111.553C73.6353 109.707 75.1318 108.209 76.9779 108.209Z" fill="#E28902"/>
<path d="M58.1531 108.205H69.3403C71.1864 108.205 72.683 109.702 72.683 111.549V126.048C72.683 127.895 71.1864 129.392 69.3403 129.392H58.1531C56.307 129.392 54.8104 127.895 54.8104 126.048V111.549C54.8104 109.702 56.307 108.205 58.1531 108.205Z" fill="#E28902"/>
<path d="M54.9424 101.925C47.9855 99.1645 43.0403 102.111 38.2578 98.2346C35.8497 96.2827 32.9075 92.3771 32.9994 94.1671C33.0356 94.8734 31.9109 99.2901 34.4755 100.268C35.9086 100.815 36.0038 103.209 37.6902 103.398C39.953 103.652 40.3304 105.246 40.7207 105.463C41.1225 105.687 42.6961 107.764 44.1299 106.95C45.651 106.086 47.0809 107.933 48.5431 107.894C49.7846 107.861 51.1525 103.015 56.0007 104.926C56.6782 105.193 57.2401 104.172 57.1997 103.587C57.1786 103.281 56.9005 102.702 54.9424 101.925Z" fill="#A67C52"/>
<g filter="url(#filter0_d_1_1155)">
<path d="M55.646 66.126H89.9082C91.7543 66.126 93.2509 67.6232 93.2509 69.47V107.926C93.2509 109.773 91.7543 111.27 89.9082 111.27H55.646C53.7999 111.27 52.3034 109.773 52.3034 107.926V69.47C52.3034 67.6232 53.7999 66.126 55.646 66.126Z" fill="#E28902"/>
</g>
<path d="M54.8105 80.4774C54.8105 79.7848 55.3717 79.2234 56.0639 79.2234C56.7562 79.2234 57.3174 79.7848 57.3174 80.4774V107.23C57.3174 107.922 56.7562 108.484 56.0639 108.484C55.3717 108.484 54.8105 107.922 54.8105 107.23V80.4774Z" fill="white"/>
<g filter="url(#filter1_d_1_1155)">
<path d="M47.8465 40.3489C47.8465 26.6314 59.0653 15.408 72.7771 15.408C86.4889 15.408 97.7077 26.6314 97.7077 40.3489V45.5043H110.661C121.615 45.5043 130.577 54.4705 130.577 65.4292C130.577 76.3879 121.615 85.3541 110.661 85.3541H67.7631C56.809 85.3541 47.8465 76.3879 47.8465 65.4292C47.8465 64.6347 47.899 63.8523 47.9905 63.0815C47.8962 62.2043 47.8465 61.3143 47.8465 60.4132V40.3489Z" fill="#A67C52"/>
</g>
<path d="M71.3844 49.6844C67.1538 49.6844 63.7242 46.2534 63.7242 42.021C63.7242 37.7886 67.1538 34.3575 71.3844 34.3575C75.6151 34.3575 79.0447 37.7886 79.0447 42.021C79.0447 46.2534 75.6151 49.6844 71.3844 49.6844Z" fill="white"/>
<path d="M87.819 49.1271C83.5884 49.1271 80.1588 45.6961 80.1588 41.4637C80.1588 37.2313 83.5884 33.8003 87.819 33.8003C92.0496 33.8003 95.4792 37.2313 95.4792 41.4637C95.4792 45.6961 92.0496 49.1271 87.819 49.1271Z" fill="white"/>
<path d="M87.6797 45.783C85.2183 45.783 83.2229 43.7868 83.2229 41.3243C83.2229 38.8618 85.2183 36.8656 87.6797 36.8656C90.1412 36.8656 92.1366 38.8618 92.1366 41.3243C92.1366 43.7868 90.1412 45.783 87.6797 45.783Z" fill="black"/>
<path d="M71.2452 46.619C68.7837 46.619 66.7883 44.6227 66.7883 42.1603C66.7883 39.6978 68.7837 37.7015 71.2452 37.7015C73.7066 37.7015 75.702 39.6978 75.702 42.1603C75.702 44.6227 73.7066 46.619 71.2452 46.619Z" fill="black"/>
<path d="M76.4054 77.7127C75.5757 78.1567 74.6107 78.4347 73.6876 78.5902C71.8344 78.9024 69.8493 78.5945 68.3496 77.3953C67.192 76.4697 66.4001 75.1914 65.8735 73.8209C65.7115 73.3991 65.8511 72.9105 66.2807 72.713C66.6702 72.5339 67.2282 72.6994 67.3911 73.1233C67.5136 73.4421 67.6474 73.7562 67.8 74.0619C67.8642 74.1906 67.9315 74.3179 68.002 74.4433C68.0428 74.5159 68.0862 74.5869 68.1277 74.6591C68.23 74.8371 68.0764 74.5905 68.1796 74.7426C68.3359 74.9729 68.4991 75.197 68.6801 75.4088C68.7572 75.499 68.8368 75.587 68.9191 75.6726C68.9644 75.7198 69.2537 75.986 69.1034 75.8572C69.2836 76.0116 69.4681 76.1588 69.6655 76.2909C69.7512 76.3484 69.8386 76.4033 69.9276 76.4555C69.9801 76.4863 70.0335 76.5151 70.0865 76.545C69.9028 76.4413 70.0648 76.534 70.1101 76.5547C70.305 76.6439 70.5004 76.7277 70.7036 76.7961C70.7934 76.8263 70.884 76.8541 70.9753 76.8796C71.0294 76.8947 71.0842 76.9076 71.1384 76.9223C70.9188 76.8626 71.1034 76.9147 71.1473 76.9229C71.5379 76.996 71.9295 77.0395 72.327 77.0424C72.3793 77.0428 72.4317 77.0409 72.4839 77.0417C72.6701 77.0448 72.2896 77.0557 72.4742 77.0422C72.559 77.036 72.644 77.033 72.7289 77.0262C72.9101 77.0117 73.0908 76.9906 73.2705 76.9635C73.6017 76.9136 73.9298 76.8435 74.2531 76.7562C74.3265 76.7363 74.3994 76.7145 74.4726 76.6939C74.6339 76.6487 74.2569 76.7664 74.5022 76.6837C74.6261 76.642 74.7498 76.6002 74.8723 76.5547C75.1539 76.45 75.4371 76.3364 75.7023 76.1944C76.1004 75.9814 76.6309 76.2123 76.8127 76.6047C77.0126 77.0363 76.8046 77.499 76.4054 77.7127Z" fill="black"/>
<path d="M64.7259 18.8488C64.0156 18.2132 62.0406 18.4123 45.5725 25.8307C34.1364 30.9824 30.8457 32.3788 24.589 35.5749C8.8561 43.6116 6.95748 46.3803 5.97553 48.6231C4.05084 53.0193 4.12596 58.8713 7.20778 63.129C9.4734 66.2591 13.53 68.7569 17.9507 68.5676C20.5084 68.4581 22.4318 67.4814 23.0954 67.1445C33.8744 61.6714 69.9764 23.5463 64.7259 18.8488Z" fill="#A67C52"/>
<path d="M118.182 59.1591C110.566 59.1591 104.393 52.9833 104.393 45.365C104.393 37.7467 110.566 31.5708 118.182 31.5708C125.797 31.5708 131.97 37.7467 131.97 45.365C131.97 52.9833 125.797 59.1591 118.182 59.1591Z" fill="black"/>
<path d="M56.2033 113.918C56.2033 113.225 56.7645 112.664 57.4568 112.664C58.149 112.664 58.7102 113.225 58.7102 113.918V123.671C58.7102 124.364 58.149 124.925 57.4568 124.925C56.7645 124.925 56.2033 124.364 56.2033 123.671V113.918Z" fill="white"/>
<path d="M87.4013 113.918C87.4013 113.225 87.9625 112.664 88.6548 112.664C89.347 112.664 89.9082 113.225 89.9082 113.918V123.671C89.9082 124.364 89.347 124.925 88.6548 124.925C87.9625 124.925 87.4013 124.364 87.4013 123.671V113.918Z" fill="white"/>
<path d="M64.3372 115.45C57.6956 115.45 52.3035 120.845 52.3035 127.489V127.656C52.3035 129.502 53.8013 131 55.6461 131H73.1951C75.0399 131 76.5377 129.502 76.5377 127.656C76.5377 120.92 71.0708 115.45 64.3372 115.45Z" fill="#A67C52"/>
<path d="M83.8359 115.45C77.1943 115.45 71.8021 120.845 71.8021 127.489V127.656C71.8021 129.502 73.2999 131 75.1448 131H92.6937C94.5386 131 96.0364 129.502 96.0364 127.656C96.0364 120.92 90.5695 115.45 83.8359 115.45Z" fill="#A67C52"/>
<g filter="url(#filter2_d_1_1155)">
<path d="M98.547 102.866C94.3164 102.866 90.8868 99.4346 90.8868 95.2022C90.8868 90.9698 94.3164 87.5388 98.547 87.5388C102.778 87.5388 106.207 90.9698 106.207 95.2022C106.207 99.4346 102.778 102.866 98.547 102.866Z" fill="#A67C52"/>
</g>
<g filter="url(#filter3_d_1_1155)">
<path d="M51.95 97.9269C47.7193 97.9269 44.2897 94.4959 44.2897 90.2635C44.2897 86.0311 47.7193 82.6001 51.95 82.6001C56.1806 82.6001 59.6102 86.0311 59.6102 90.2635C59.6102 94.4959 56.1806 97.9269 51.95 97.9269Z" fill="#A67C52"/>
</g>
<defs>
<filter id="filter0_d_1_1155" x="50.8652" y="64.6878" width="55.329" height="59.5261" filterUnits="userSpaceOnUse" color-interpolation-filters="sRGB">
<feFlood flood-opacity="0" result="BackgroundImageFix"/>
<feColorMatrix in="SourceAlpha" type="matrix" values="0 0 0 0 0 0 0 0 0 0 0 0 0 0 0 0 0 0 127 0" result="hardAlpha"/>
<feOffset dx="5.75261" dy="5.75261"/>
<feGaussianBlur stdDeviation="3.59538"/>
<feColorMatrix type="matrix" values="0 0 0 0 0 0 0 0 0 0 0 0 0 0 0 0 0 0 0.2 0"/>
<feBlend mode="normal" in2="BackgroundImageFix" result="effect1_dropShadow_1_1155"/>
<feBlend mode="normal" in="SourceGraphic" in2="effect1_dropShadow_1_1155" result="shape"/>
</filter>
<filter id="filter1_d_1_1155" x="46.4084" y="13.9698" width="97.1121" height="84.3277" filterUnits="userSpaceOnUse" color-interpolation-filters="sRGB">
<feFlood flood-opacity="0" result="BackgroundImageFix"/>
<feColorMatrix in="SourceAlpha" type="matrix" values="0 0 0 0 0 0 0 0 0 0 0 0 0 0 0 0 0 0 127 0" result="hardAlpha"/>
<feOffset dx="5.75261" dy="5.75261"/>
<feGaussianBlur stdDeviation="3.59538"/>
<feColorMatrix type="matrix" values="0 0 0 0 0 0 0 0 0 0 0 0 0 0 0 0 0 0 0.2 0"/>
<feBlend mode="normal" in2="BackgroundImageFix" result="effect1_dropShadow_1_1155"/>
<feBlend mode="normal" in="SourceGraphic" in2="effect1_dropShadow_1_1155" result="shape"/>
</filter>
<filter id="filter2_d_1_1155" x="89.4487" y="86.1007" width="29.702" height="29.7083" filterUnits="userSpaceOnUse" color-interpolation-filters="sRGB">
<feFlood flood-opacity="0" result="BackgroundImageFix"/>
<feColorMatrix in="SourceAlpha" type="matrix" values="0 0 0 0 0 0 0 0 0 0 0 0 0 0 0 0 0 0 127 0" result="hardAlpha"/>
<feOffset dx="5.75261" dy="5.75261"/>
<feGaussianBlur stdDeviation="3.59538"/>
<feColorMatrix type="matrix" values="0 0 0 0 0 0 0 0 0 0 0 0 0 0 0 0 0 0 0.2 0"/>
<feBlend mode="normal" in2="BackgroundImageFix" result="effect1_dropShadow_1_1155"/>
<feBlend mode="normal" in="SourceGraphic" in2="effect1_dropShadow_1_1155" result="shape"/>
</filter>
<filter id="filter3_d_1_1155" x="42.8516" y="81.1619" width="29.702" height="29.7083" filterUnits="userSpaceOnUse" color-interpolation-filters="sRGB">
<feFlood flood-opacity="0" result="BackgroundImageFix"/>
<feColorMatrix in="SourceAlpha" type="matrix" values="0 0 0 0 0 0 0 0 0 0 0 0 0 0 0 0 0 0 127 0" result="hardAlpha"/>
<feOffset dx="5.75261" dy="5.75261"/>
<feGaussianBlur stdDeviation="3.59538"/>
<feColorMatrix type="matrix" values="0 0 0 0 0 0 0 0 0 0 0 0 0 0 0 0 0 0 0.2 0"/>
<feBlend mode="normal" in2="BackgroundImageFix" result="effect1_dropShadow_1_1155"/>
<feBlend mode="normal" in="SourceGraphic" in2="effect1_dropShadow_1_1155" result="shape"/>
</filter>
</defs>
</svg>
