<svg width="16" height="16" viewBox="0 0 16 16" fill="none" xmlns="http://www.w3.org/2000/svg">
<path d="M7.71762 14.9392L7.47549 14.0355C7.53769 14.0189 7.58922 14.0057 7.64038 13.9913C8.1693 13.8416 8.70579 13.7139 9.22549 13.5374C10.392 13.1411 11.2682 12.3918 11.856 11.3323C12.494 10.1825 12.6219 8.97136 12.2391 7.73327C11.5984 5.66139 9.61656 4.33384 7.39341 4.47304C7.07688 4.49286 6.75774 4.54945 6.44964 4.6278C5.52901 4.8619 4.61325 5.11523 3.69564 5.36127C3.66785 5.36872 3.64069 5.37849 3.60469 5.38988C4.30218 5.77638 4.99021 6.15765 5.66132 6.52954C5.48462 6.82634 5.32718 7.09079 5.17682 7.34335C4.03777 6.70515 2.87261 6.05231 1.71813 5.40546C2.3918 4.27258 3.0744 3.12468 3.75032 1.98801C4.00382 2.12955 4.2695 2.2779 4.53771 2.42766C4.14123 3.08845 3.73624 3.76346 3.33123 4.43845C3.34381 4.45241 3.35638 4.46635 3.36894 4.48031C3.41822 4.4671 3.46752 4.45389 3.51681 4.44069C4.4103 4.20127 5.30361 3.96117 6.19733 3.7226C8.90429 3.00001 11.7131 4.2678 12.8842 6.74075C12.9607 6.90239 13.0326 7.06618 13.1067 7.22898C13.1824 7.51141 13.258 7.79385 13.3337 8.07628C13.3549 8.27835 13.38 8.48006 13.3967 8.68253C13.5796 10.8934 12.2606 13.1553 10.2076 14.1499C9.98913 14.2558 9.76499 14.3502 9.54346 14.45L7.71762 14.9392Z" fill="#121B30" stroke="#121B30" stroke-width="0.888889" stroke-miterlimit="10"/>
</svg>
